<?xml version="1.0" standalone="no"?>
<!DOCTYPE svg PUBLIC "-//W3C//DTD SVG 20010904//EN"
 "http://www.w3.org/TR/2001/REC-SVG-20010904/DTD/svg10.dtd">
<svg version="1.0" xmlns="http://www.w3.org/2000/svg"
 width="256.000000pt" height="256.000000pt" viewBox="0 0 256.000000 256.000000"
 preserveAspectRatio="xMidYMid meet">
<metadata>
Created by potrace 1.16, written by Peter Selinger 2001-2019
</metadata>
<g transform="translate(0.000000,256.000000) scale(0.100000,-0.100000)"
fill="#000000" stroke="none">
<path d="M317 2550 c-98 -17 -209 -95 -261 -185 -58 -99 -58 -81 -54 -1078 l3
-912 33 -68 c41 -83 109 -152 188 -192 l59 -30 553 -3 c303 -1 552 0 552 3 0
3 -18 31 -39 63 -22 31 -47 73 -56 93 l-17 36 -473 9 -473 9 -39 31 c-21 17
-48 48 -60 70 l-23 39 0 878 c0 770 2 882 15 915 21 49 52 81 100 103 36 17
70 19 367 19 179 0 334 -3 343 -6 40 -16 48 -60 53 -289 3 -121 8 -230 13
-242 19 -50 43 -56 294 -62 306 -8 279 17 283 -261 2 -130 7 -208 13 -204 5 3
51 16 102 28 l92 23 3 236 c3 306 15 282 -258 561 -191 196 -381 371 -433 399
-41 22 -48 22 -437 24 -217 1 -416 -2 -443 -7z"/>
<path d="M1860 1145 c-108 -24 -206 -79 -285 -159 -82 -82 -127 -162 -155
-272 -50 -196 7 -401 150 -545 241 -241 643 -224 860 37 50 59 104 170 119
242 37 178 -14 380 -129 514 -55 64 -176 143 -258 168 -88 28 -218 34 -302 15z
m220 -375 l0 -100 95 0 95 0 0 -95 0 -95 -95 0 -95 0 0 -95 0 -95 -95 0 -95 0
0 95 0 95 -100 0 -100 0 0 95 0 95 100 0 100 0 0 100 0 100 95 0 95 0 0 -100z"/>
</g>
</svg>
