<?xml version="1.0" standalone="no"?>
<!DOCTYPE svg PUBLIC "-//W3C//DTD SVG 20010904//EN"
 "http://www.w3.org/TR/2001/REC-SVG-20010904/DTD/svg10.dtd">
<svg version="1.0" xmlns="http://www.w3.org/2000/svg"
 width="256.000000pt" height="256.000000pt" viewBox="0 0 256.000000 256.000000"
 preserveAspectRatio="xMidYMid meet">
<metadata>
Created by potrace 1.16, written by Peter Selinger 2001-2019
</metadata>
<g transform="translate(0.000000,256.000000) scale(0.100000,-0.100000)"
fill="#000000" stroke="none">
<path d="M2475 2049 c-318 -272 -766 -430 -1288 -456 l-137 -6 0 151 c0 106
-3 152 -11 152 -15 0 -996 -677 -1038 -716 -9 -9 38 -45 269 -206 438 -306
751 -518 766 -518 11 0 14 26 14 150 0 129 2 150 16 150 41 0 336 109 472 175
419 203 728 488 900 831 40 79 122 308 122 339 0 24 -10 18 -85 -46z"/>
</g>
</svg>
