<?xml version="1.0" standalone="no"?>
<!DOCTYPE svg PUBLIC "-//W3C//DTD SVG 20010904//EN"
 "http://www.w3.org/TR/2001/REC-SVG-20010904/DTD/svg10.dtd">
<svg version="1.0" xmlns="http://www.w3.org/2000/svg"
 width="256.000000pt" height="256.000000pt" viewBox="0 0 256.000000 256.000000"
 preserveAspectRatio="xMidYMid meet">
<metadata>
Created by potrace 1.16, written by Peter Selinger 2001-2019
</metadata>
<g transform="translate(0.000000,256.000000) scale(0.100000,-0.100000)"
fill="#000000" stroke="none">
<path d="M1023 2539 c-172 -36 -307 -91 -448 -184 -150 -98 -272 -220 -370
-370 -94 -144 -149 -278 -185 -455 -31 -154 -41 -141 101 -138 l122 3 19 95
c84 417 443 760 857 819 l46 6 3 123 3 122 -28 -1 c-15 0 -69 -9 -120 -20z"/>
<path d="M1392 2439 l3 -124 46 -6 c414 -59 773 -402 857 -819 l19 -95 123 -3
122 -3 -7 58 c-26 212 -124 448 -257 620 -202 263 -524 448 -851 488 l-58 7 3
-123z"/>
<path d="M1224 1854 c-58 -29 -64 -51 -64 -263 l0 -191 -191 0 c-213 0 -235
-6 -264 -66 -19 -40 -19 -68 0 -108 29 -60 51 -66 264 -66 l191 0 0 -191 c0
-213 6 -235 66 -264 40 -19 68 -19 108 0 60 29 66 51 66 264 l0 191 191 0
c162 0 195 3 220 17 31 18 59 67 59 103 0 36 -28 85 -59 103 -25 14 -58 17
-220 17 l-191 0 0 191 c0 213 -6 235 -66 264 -40 19 -71 19 -110 -1z"/>
<path d="M5 1113 c40 -327 225 -649 488 -851 172 -133 408 -231 620 -257 l58
-7 -3 123 -3 124 -46 6 c-414 59 -773 402 -857 819 l-19 95 -123 3 -122 3 7
-58z"/>
<path d="M2316 1158 c-2 -7 -11 -51 -21 -98 -81 -406 -444 -750 -854 -809
l-46 -6 -3 -124 -3 -123 58 7 c327 40 649 225 851 488 133 172 231 408 257
620 l7 57 -121 0 c-89 0 -123 -3 -125 -12z"/>
</g>
</svg>
