<?xml version="1.0" standalone="no"?>
<!DOCTYPE svg PUBLIC "-//W3C//DTD SVG 20010904//EN"
 "http://www.w3.org/TR/2001/REC-SVG-20010904/DTD/svg10.dtd">
<svg version="1.0" xmlns="http://www.w3.org/2000/svg"
 width="256.000000pt" height="256.000000pt" viewBox="0 0 256.000000 256.000000"
 preserveAspectRatio="xMidYMid meet">
<metadata>
Created by potrace 1.16, written by Peter Selinger 2001-2019
</metadata>
<g transform="translate(0.000000,256.000000) scale(0.100000,-0.100000)"
fill="#000000" stroke="none">
<path d="M1911 2547 c-32 -12 -191 -142 -191 -156 0 -3 151 -157 336 -341
l335 -335 64 69 c85 92 100 124 100 211 -1 52 -6 81 -22 111 -29 54 -373 399
-426 425 -50 26 -148 34 -196 16z"/>
<path d="M1535 2229 c-41 -39 -75 -77 -75 -83 0 -20 676 -688 693 -685 16 4
157 136 157 147 0 10 -683 692 -693 692 -4 0 -41 -32 -82 -71z"/>
<path d="M799 1491 l-565 -559 -92 -313 c-159 -547 -161 -555 -105 -599 33
-26 57 -25 178 6 107 27 654 187 701 204 15 6 279 261 586 567 l558 557 -77
78 -78 78 -550 -548 -550 -549 -214 -62 -214 -63 -43 44 -44 43 66 225 66 225
541 542 542 543 -70 70 -71 71 -565 -560z"/>
<path d="M1045 1256 c-301 -299 -545 -548 -541 -554 3 -5 23 -12 43 -16 95
-15 112 -24 118 -64 13 -80 17 -92 28 -92 7 0 257 245 557 545 l545 545 -91
90 c-50 50 -96 90 -102 90 -5 0 -256 -245 -557 -544z"/>
</g>
</svg>
