<?xml version="1.0" standalone="no"?>
<!DOCTYPE svg PUBLIC "-//W3C//DTD SVG 20010904//EN"
 "http://www.w3.org/TR/2001/REC-SVG-20010904/DTD/svg10.dtd">
<svg version="1.0" xmlns="http://www.w3.org/2000/svg"
 width="256.000000pt" height="256.000000pt" viewBox="0 0 256.000000 256.000000"
 preserveAspectRatio="xMidYMid meet">
<metadata>
Created by potrace 1.16, written by Peter Selinger 2001-2019
</metadata>
<g transform="translate(0.000000,256.000000) scale(0.100000,-0.100000)"
fill="#000000" stroke="none">
<path d="M115 2342 c-69 -32 -115 -105 -115 -181 0 -13 22 -75 50 -137 36 -82
50 -125 50 -159 0 -25 -18 -123 -40 -218 -76 -332 -76 -423 0 -737 53 -220 53
-243 -10 -380 -28 -61 -50 -124 -50 -143 0 -55 46 -134 94 -162 64 -37 123
-33 312 21 115 33 178 46 229 47 66 1 75 -2 157 -46 119 -65 164 -65 315 0
152 65 197 65 321 1 125 -66 169 -66 330 -1 148 59 170 59 381 -1 187 -53 258
-58 321 -26 51 26 89 83 96 146 6 45 1 61 -42 154 -66 143 -67 171 -15 388 76
319 77 418 5 712 -19 80 -38 177 -41 216 -5 69 -4 74 42 175 26 57 50 121 53
141 11 83 -54 175 -140 199 -53 14 -77 10 -273 -46 -220 -63 -254 -63 -371 0
-81 44 -95 49 -154 48 -55 0 -79 -6 -157 -41 -104 -48 -174 -64 -224 -53 -19
4 -75 29 -124 55 -83 44 -94 48 -145 43 -32 -3 -102 -24 -170 -51 -146 -59
-169 -59 -375 0 -194 55 -254 62 -310 36z m2098 -305 c15 -9 30 -30 34 -45 5
-15 8 -343 8 -730 l0 -704 -33 -29 -32 -29 -910 0 -910 0 -32 29 -33 29 -4
579 c-1 318 0 642 4 721 9 187 8 185 147 193 56 3 470 5 918 5 762 -1 818 -2
843 -19z"/>
<path d="M1496 1804 c-36 -30 -66 -59 -66 -64 0 -12 202 -221 262 -272 l51
-42 58 62 c55 58 59 66 59 110 0 44 -5 53 -52 106 -28 32 -78 80 -110 107 -83
69 -114 68 -202 -7z"/>
<path d="M1066 1381 l-268 -268 -38 -125 c-66 -220 -76 -264 -61 -282 20 -24
48 -20 241 36 l178 51 269 269 268 268 -160 160 -160 160 -269 -269z m-84
-389 c20 -17 72 -101 66 -107 -2 -2 -43 -15 -92 -29 -124 -36 -135 -24 -96
104 11 36 23 71 25 78 4 11 14 8 42 -9 21 -12 46 -29 55 -37z"/>
</g>
</svg>
