<?xml version="1.0" standalone="no"?>
<!DOCTYPE svg PUBLIC "-//W3C//DTD SVG 20010904//EN"
 "http://www.w3.org/TR/2001/REC-SVG-20010904/DTD/svg10.dtd">
<svg version="1.0" xmlns="http://www.w3.org/2000/svg"
 width="256.000000pt" height="256.000000pt" viewBox="0 0 256.000000 256.000000"
 preserveAspectRatio="xMidYMid meet">
<metadata>
Created by potrace 1.16, written by Peter Selinger 2001-2019
</metadata>
<g transform="translate(0.000000,256.000000) scale(0.100000,-0.100000)"
fill="#000000" stroke="none">
<path d="M1840 2149 c-35 -14 -72 -65 -79 -108 l-6 -36 -638 -3 -637 -2 0 -80
0 -80 940 0 c517 0 940 -4 940 -8 0 -5 -3 -12 -7 -16 -4 -4 -8 -17 -10 -29 -1
-12 -4 -33 -7 -47 -3 -14 -8 -43 -11 -65 -3 -22 -9 -47 -12 -55 -3 -8 -5 -23
-4 -32 1 -10 -1 -18 -6 -18 -4 0 -9 -10 -10 -22 -1 -13 -4 -34 -6 -48 -2 -14
-8 -49 -12 -77 -4 -29 -11 -53 -15 -53 -4 0 -5 -11 -2 -25 2 -15 0 -25 -7 -25
-7 0 -9 -4 -6 -10 5 -9 -19 -151 -32 -190 -3 -8 -7 -24 -9 -35 -8 -53 -12 -70
-14 -70 -1 0 -4 -11 -5 -25 -2 -14 -6 -36 -9 -50 -3 -14 -8 -45 -12 -70 -3
-25 -11 -49 -16 -55 -8 -7 -9 -5 -5 8 4 9 2 17 -4 17 -6 0 -9 7 -6 15 4 8 2
17 -2 20 -5 2 -12 19 -15 37 -3 18 -9 44 -12 58 -3 14 -7 32 -9 40 -1 8 -6 23
-10 34 -4 10 -8 31 -9 47 -1 16 -5 29 -10 29 -4 0 -6 9 -3 20 3 11 1 20 -5 20
-6 0 -8 6 -5 14 3 7 1 18 -4 23 -6 6 -11 27 -12 47 -1 20 -4 36 -7 36 -5 0
-21 63 -34 130 -2 8 -6 23 -10 32 -4 9 -5 22 -1 28 3 5 1 10 -5 10 -7 0 -10 7
-7 15 4 8 2 17 -2 20 -5 2 -12 19 -15 37 -3 18 -9 44 -12 58 -3 14 -7 34 -8
45 -3 20 -11 20 -969 23 l-967 2 3 -40 c1 -22 6 -40 11 -40 4 0 6 -9 3 -20 -3
-11 -2 -20 2 -20 8 0 8 -3 13 -50 2 -14 7 -28 11 -31 5 -3 9 -22 10 -42 1 -20
6 -37 11 -37 4 0 6 -9 3 -20 -3 -11 -2 -20 3 -20 4 0 11 -19 15 -42 4 -24 10
-50 12 -58 3 -8 6 -25 7 -37 0 -13 4 -23 7 -23 8 0 30 -100 23 -111 -3 -5 0
-9 7 -9 6 0 9 -8 6 -20 -3 -11 -2 -20 2 -20 10 0 33 -99 25 -111 -3 -5 -1 -9
4 -9 5 0 9 -6 10 -12 1 -7 3 -24 4 -38 2 -14 7 -28 11 -31 5 -3 9 -22 10 -42
1 -20 5 -37 10 -37 4 0 6 -3 5 -7 -1 -5 4 -27 11 -51 6 -23 9 -47 6 -52 -3 -6
-1 -10 6 -10 6 0 9 -8 6 -20 -3 -11 -2 -20 2 -20 8 0 10 -10 14 -55 1 -14 6
-25 11 -25 4 0 6 -9 3 -20 -3 -10 -1 -20 5 -22 5 -2 10 -20 11 -41 l2 -37 973
-2 c772 -2 972 0 972 10 0 17 0 18 11 54 5 18 12 47 14 63 3 17 10 55 16 85 6
30 11 61 12 68 0 6 4 12 8 12 4 0 6 9 4 20 -2 11 1 34 6 52 6 18 12 51 15 72
3 22 9 47 14 57 5 9 7 19 3 22 -3 3 -2 14 2 24 4 10 9 25 11 33 4 20 15 92 16
108 1 6 4 12 8 12 4 0 6 10 5 23 -1 12 2 36 7 52 9 29 19 87 21 113 0 6 3 12
6 12 3 0 7 21 9 47 1 26 6 50 10 53 4 3 8 16 9 30 3 46 7 70 13 70 3 0 6 21 7
47 1 27 7 49 12 51 5 2 8 14 5 27 -2 13 0 26 5 29 5 3 7 15 4 26 -3 11 0 20 6
20 5 0 8 7 5 15 -4 8 -3 23 1 33 8 18 8 19 20 97 4 28 10 52 14 55 4 3 8 45 8
94 2 81 0 90 -23 114 -13 15 -24 30 -24 34 0 5 -7 8 -15 8 -8 0 -15 4 -15 9 0
13 -607 13 -640 0z"/>
</g>
</svg>
