<?xml version="1.0" standalone="no"?>
<!DOCTYPE svg PUBLIC "-//W3C//DTD SVG 20010904//EN"
 "http://www.w3.org/TR/2001/REC-SVG-20010904/DTD/svg10.dtd">
<svg version="1.0" xmlns="http://www.w3.org/2000/svg"
 width="256.000000pt" height="256.000000pt" viewBox="0 0 256.000000 256.000000"
 preserveAspectRatio="xMidYMid meet">
<metadata>
Created by potrace 1.16, written by Peter Selinger 2001-2019
</metadata>
<g transform="translate(0.000000,256.000000) scale(0.100000,-0.100000)"
fill="#000000" stroke="none">
<path d="M160 2539 c-8 -11 -14 -25 -12 -31 1 -5 -1 -7 -6 -4 -9 5 -52 -46
-52 -63 0 -5 -7 -12 -16 -15 -9 -4 -14 -13 -10 -22 3 -8 2 -12 -4 -9 -5 3 -17
-7 -27 -22 -10 -15 -22 -31 -27 -34 -20 -15 9 -29 60 -29 49 0 54 -2 55 -22 0
-29 0 -1934 0 -2003 l-1 -51 -58 2 -58 2 -1 -60 c0 -65 13 -81 49 -59 15 9 18
10 13 0 -6 -8 2 -10 26 -8 l34 4 -3 -58 -2 -58 65 2 65 2 0 54 c0 38 -3 52
-12 47 -6 -4 -8 -3 -5 4 4 5 16 8 27 5 11 -3 28 1 37 8 9 8 14 9 10 3 -10 -17
211 -18 231 -2 11 9 14 10 9 1 -10 -16 212 -16 232 0 11 9 13 9 8 1 -10 -16
213 -17 232 -1 11 9 13 9 8 0 -10 -16 212 -16 232 0 10 8 13 8 8 1 -10 -17
211 -18 231 -2 11 9 14 10 9 1 -10 -16 212 -16 232 0 11 9 13 9 8 1 -10 -16
213 -17 232 -1 11 9 13 9 8 0 -10 -16 212 -16 232 0 12 10 13 9 7 -1 -7 -11 3
-13 47 -10 30 1 53 -1 50 -5 -3 -4 1 -15 9 -24 7 -9 8 -14 2 -10 -7 4 -11 -8
-12 -33 -1 -22 1 -40 3 -40 16 0 54 34 48 43 -3 6 -1 7 6 3 7 -5 24 6 43 26
17 18 28 27 23 19 -4 -8 17 5 48 28 30 23 58 48 61 56 6 17 -19 39 -34 30 -6
-4 -9 -1 -8 5 2 7 -6 17 -16 23 -11 7 -28 20 -38 30 -10 10 -23 15 -29 12 -5
-4 -8 -1 -7 7 2 8 -4 12 -15 10 -9 -2 -16 2 -15 8 2 7 -6 17 -17 23 -11 7 -24
18 -28 25 -17 26 -27 9 -27 -47 0 -38 -4 -60 -12 -63 -7 -2 -142 -3 -300 -2
-211 1 -286 -1 -281 -10 4 -6 0 -5 -9 2 -20 16 -200 14 -191 -2 4 -6 -1 -5
-10 3 -14 11 -20 11 -34 0 -9 -8 -14 -9 -10 -3 5 8 -94 11 -353 11 -257 0
-357 -3 -353 -11 4 -6 0 -5 -9 2 -20 16 -200 14 -191 -2 4 -6 -1 -5 -10 3 -14
11 -20 11 -34 0 -9 -8 -14 -9 -10 -3 5 9 -30 11 -128 10 l-135 -1 0 192 c0
144 -3 193 -12 196 -10 4 -10 6 0 6 17 1 17 467 -1 475 -9 3 -9 5 1 5 9 1 12
55 12 235 0 178 -3 236 -12 239 -10 4 -10 6 0 6 17 1 17 467 -1 475 -9 3 -9 5
1 5 9 1 12 32 12 121 l0 120 38 1 c20 1 48 1 62 0 18 -1 21 1 12 7 -8 5 -14
13 -15 18 -1 5 -5 8 -8 7 -3 -1 -6 3 -6 10 0 7 -26 47 -58 90 -50 67 -60 76
-74 65 -14 -12 -14 -11 -2 5 11 14 11 20 1 32 -16 20 -23 19 -40 -6z m20 -53
c0 -2 -8 -10 -17 -17 -16 -13 -17 -12 -4 4 13 16 21 21 21 13z m-55 -54 c-3
-3 -11 0 -18 7 -9 10 -8 11 6 5 10 -3 15 -9 12 -12z m51 6 c3 -4 -1 -5 -10 -4
-8 1 -18 5 -22 8 -3 4 1 5 10 4 8 -1 18 -5 22 -8z m75 -75 c13 -16 12 -17 -3
-4 -10 7 -18 15 -18 17 0 8 8 3 21 -13z m-45 -129 c1 -9 0 -13 -4 -10 -3 4 -7
14 -8 22 -1 9 0 13 4 10 3 -4 7 -14 8 -22z m-35 -271 c13 -16 12 -17 -3 -4
-17 13 -22 21 -14 21 2 0 10 -8 17 -17z m0 -480 c13 -16 12 -17 -3 -4 -10 7
-18 15 -18 17 0 8 8 3 21 -13z m30 -210 c13 -16 12 -17 -3 -4 -17 13 -22 21
-14 21 2 0 10 -8 17 -17z m-30 -270 c13 -16 12 -17 -3 -4 -10 7 -18 15 -18 17
0 8 8 3 21 -13z m0 -480 c13 -16 12 -17 -3 -4 -10 7 -18 15 -18 17 0 8 8 3 21
-13z m30 -210 c13 -16 12 -17 -3 -4 -17 13 -22 21 -14 21 2 0 10 -8 17 -17z
m-56 -13 c3 -5 1 -10 -4 -10 -6 0 -11 5 -11 10 0 6 2 10 4 10 3 0 8 -4 11 -10z
m785 -124 c0 -2 -8 -10 -17 -17 -16 -13 -17 -12 -4 4 13 16 21 21 21 13z m480
0 c0 -2 -8 -10 -17 -17 -16 -13 -17 -12 -4 4 13 16 21 21 21 13z m480 0 c0 -2
-8 -10 -17 -17 -16 -13 -17 -12 -4 4 13 16 21 21 21 13z m480 0 c0 -2 -8 -10
-17 -17 -16 -13 -17 -12 -4 4 13 16 21 21 21 13z m80 -52 c0 -8 -19 -13 -24
-6 -3 5 1 9 9 9 8 0 15 -2 15 -3z m-2279 -81 c13 -16 12 -17 -3 -4 -17 13 -22
21 -14 21 2 0 10 -8 17 -17z"/>
<path d="M635 2284 c-8 -8 -17 -14 -20 -14 -14 3 -94 -43 -90 -51 4 -5 -2 -6
-11 -2 -13 5 -15 3 -9 -7 5 -8 4 -11 -3 -6 -12 7 -102 -33 -102 -47 0 -4 -4
-5 -10 -2 -5 3 -10 1 -10 -5 0 -6 -4 -9 -9 -6 -4 3 -9 -28 -9 -69 0 -44 3 -75
9 -75 6 0 7 5 3 12 -4 7 -3 8 4 4 15 -9 54 12 47 24 -3 6 1 7 9 4 20 -8 78 24
70 38 -4 7 -3 8 4 4 12 -7 112 39 124 58 4 6 8 7 8 2 0 -5 10 -1 23 10 12 10
17 12 10 5 -10 -12 -8 -24 11 -60 13 -25 38 -79 56 -118 19 -40 37 -73 42 -73
4 0 7 -4 5 -8 -1 -4 14 -42 33 -84 29 -65 38 -76 55 -72 18 4 18 4 3 -6 -9 -6
-15 -17 -12 -25 4 -8 10 -12 15 -9 5 3 7 -1 4 -8 -3 -7 4 -28 15 -45 17 -28
26 -33 58 -33 46 0 56 8 39 29 -10 14 -10 14 4 3 14 -10 23 -7 60 22 24 19 53
43 64 53 11 10 22 18 25 18 16 0 69 48 64 57 -4 7 -2 8 5 4 13 -8 44 12 37 23
-4 6 42 7 54 1 3 -1 8 -2 13 -1 4 0 6 -5 5 -11 -2 -7 3 -12 10 -10 8 1 11 -2
8 -7 -3 -5 1 -14 9 -21 12 -10 19 -10 33 1 15 12 16 12 4 -2 -10 -13 -10 -18
0 -27 7 -6 17 -10 21 -10 5 0 12 -4 15 -8 4 -4 0 -4 -8 0 -8 4 -3 -4 13 -18
15 -14 33 -24 40 -22 6 1 8 1 4 -2 -4 -2 -3 -10 4 -18 6 -8 16 -11 22 -7 5 3
7 2 4 -4 -4 -6 16 -29 43 -52 38 -32 57 -41 82 -40 33 2 164 35 183 47 21 13
34 9 61 -19 15 -16 32 -29 37 -29 4 0 16 -7 25 -16 15 -15 18 -14 39 12 13 16
21 35 18 42 -2 6 2 12 10 12 17 0 28 17 20 30 -5 8 -11 8 -20 0 -10 -8 -13 -6
-11 7 0 10 -5 17 -12 15 -8 -1 -11 1 -8 6 3 5 -12 25 -32 45 -34 34 -41 36
-87 32 -69 -5 -111 -19 -107 -36 3 -11 1 -11 -8 -3 -14 14 -52 6 -43 -9 3 -5
2 -7 -4 -4 -5 3 -26 7 -46 9 -19 1 -35 5 -34 8 3 9 -56 70 -67 70 -4 0 -17 11
-28 25 -11 14 -24 23 -29 19 -5 -3 -8 -2 -7 3 5 16 -156 153 -180 153 -16 0
-21 -4 -16 -12 5 -8 1 -7 -10 2 -16 13 -20 12 -36 -7 -10 -12 -20 -20 -22 -18
-2 3 -21 -10 -41 -29 -20 -19 -37 -31 -37 -29 0 3 -7 0 -15 -7 -12 -10 -13
-16 -3 -29 12 -14 11 -14 -4 -2 -15 11 -21 11 -33 1 -12 -10 -13 -16 -3 -29
11 -14 11 -14 -4 -3 -14 12 -21 10 -47 -9 -17 -12 -28 -26 -26 -30 3 -4 -2 -6
-11 -5 -9 1 -29 34 -48 77 -46 105 -117 243 -128 250 -5 3 -8 9 -6 12 5 8 -45
117 -55 117 -4 0 -6 4 -3 8 3 5 -1 18 -9 29 -18 25 -87 29 -110 7z m-168 -113
c0 -11 -5 -18 -9 -15 -4 3 -5 11 -1 19 7 21 12 19 10 -4z m283 15 c0 -3 -4 -8
-10 -11 -5 -3 -10 -1 -10 4 0 6 5 11 10 11 6 0 10 -2 10 -4z m-200 -46 c0 -5
-5 -10 -11 -10 -5 0 -7 5 -4 10 3 6 8 10 11 10 2 0 4 -4 4 -10z m295 -100 c3
-5 1 -10 -4 -10 -6 0 -11 5 -11 10 0 6 2 10 4 10 3 0 8 -4 11 -10z m9 -38 c2
-4 -4 -8 -14 -8 -10 0 -16 4 -14 8 3 4 9 8 14 8 5 0 11 -4 14 -8z m-49 -62 c3
-5 1 -10 -4 -10 -6 0 -11 5 -11 10 0 6 2 10 4 10 3 0 8 -4 11 -10z m445 -20
c0 -5 -2 -10 -4 -10 -3 0 -8 5 -11 10 -3 6 -1 10 4 10 6 0 11 -4 11 -10z m178
-45 c-3 -3 -9 2 -12 12 -6 14 -5 15 5 6 7 -7 10 -15 7 -18z m-603 5 c3 -5 1
-10 -4 -10 -6 0 -11 5 -11 10 0 6 2 10 4 10 3 0 8 -4 11 -10z m105 -20 c0 -5
-5 -10 -11 -10 -5 0 -7 5 -4 10 3 6 8 10 11 10 2 0 4 -4 4 -10z m255 0 c3 -5
1 -10 -4 -10 -6 0 -11 5 -11 10 0 6 2 10 4 10 3 0 8 -4 11 -10z m85 0 c0 -5
-5 -10 -11 -10 -5 0 -7 5 -4 10 3 6 8 10 11 10 2 0 4 -4 4 -10z m640 -120 c0
-5 -2 -10 -4 -10 -3 0 -8 5 -11 10 -3 6 -1 10 4 10 6 0 11 -4 11 -10z m34 -46
c3 -8 2 -12 -4 -9 -6 3 -10 10 -10 16 0 14 7 11 14 -7z m-300 -24 c-6 -6 -10
-3 -10 10 0 13 4 16 10 10 7 -7 7 -13 0 -20z m40 4 c3 -8 2 -12 -4 -9 -6 3
-10 10 -10 16 0 14 7 11 14 -7z m261 -14 c3 -5 1 -10 -4 -10 -6 0 -11 5 -11
10 0 6 2 10 4 10 3 0 8 -4 11 -10z m35 -54 c0 -2 -8 -10 -17 -17 -16 -13 -17
-12 -4 4 13 16 21 21 21 13z"/>
<path d="M2147 1655 l-409 -563 -151 119 c-143 112 -155 119 -197 119 -25 -1
-52 -6 -61 -13 -9 -7 -85 -105 -170 -218 l-154 -206 -94 44 c-97 45 -160 55
-192 30 -8 -7 -93 -104 -187 -215 l-172 -204 0 -94 0 -94 63 1 62 1 163 193
162 194 96 -44 c108 -50 166 -58 200 -26 11 10 83 102 159 205 76 102 143 186
147 186 5 0 75 -52 156 -115 138 -109 149 -115 192 -115 25 0 52 6 61 13 9 7
179 237 378 510 l361 498 -2 178 -3 178 -408 -562z"/>
<path d="M2299 1354 c-9 -11 -9 -14 2 -14 8 0 3 -6 -10 -13 -13 -6 -23 -16
-21 -21 1 -5 -5 -13 -14 -18 -9 -5 -16 -15 -16 -23 0 -16 37 -45 54 -41 6 2 7
1 3 -2 -5 -2 8 -22 29 -43 20 -21 42 -35 47 -32 6 3 7 1 4 -4 -8 -13 17 -36
28 -25 5 4 5 2 2 -4 -8 -14 17 -37 27 -26 4 4 6 0 4 -8 -2 -10 3 -14 15 -12
10 2 16 -3 15 -10 -2 -7 3 -12 9 -11 7 2 12 -3 10 -10 -1 -6 4 -11 11 -9 8 1
11 -1 8 -6 -3 -5 7 -21 23 -36 l28 -27 1 53 c0 29 -5 59 -12 67 -7 10 -7 13 0
8 7 -4 11 6 11 29 0 26 -4 33 -14 30 -8 -3 -12 -2 -9 3 3 4 -4 17 -16 27 -12
11 -18 13 -13 5 5 -10 4 -12 -4 -7 -6 4 -9 11 -7 15 3 4 -8 20 -23 35 -18 17
-31 23 -34 17 -3 -7 -4 -6 -2 1 4 20 -55 77 -73 71 -9 -4 -13 -2 -9 4 3 5 -4
19 -18 31 -20 18 -25 19 -36 6z"/>
</g>
</svg>
