<?xml version="1.0" standalone="no"?>
<!DOCTYPE svg PUBLIC "-//W3C//DTD SVG 20010904//EN"
 "http://www.w3.org/TR/2001/REC-SVG-20010904/DTD/svg10.dtd">
<svg version="1.0" xmlns="http://www.w3.org/2000/svg"
 width="256.000000pt" height="256.000000pt" viewBox="0 0 256.000000 256.000000"
 preserveAspectRatio="xMidYMid meet">
<metadata>
Created by potrace 1.16, written by Peter Selinger 2001-2019
</metadata>
<g transform="translate(0.000000,256.000000) scale(0.100000,-0.100000)"
fill="#000000" stroke="none">
<path d="M1684 2551 c-149 -24 -272 -88 -385 -201 -139 -139 -202 -291 -202
-485 1 -104 18 -197 51 -275 l19 -45 -524 -520 c-389 -387 -527 -530 -539
-560 -9 -21 -16 -65 -16 -96 0 -123 87 -209 212 -209 66 0 115 21 167 73 l43
41 138 -137 139 -137 48 0 49 0 208 207 c224 223 244 251 219 311 -6 15 -70
86 -141 157 l-130 130 216 216 217 217 81 -31 c78 -30 87 -32 236 -32 150 0
158 1 238 32 202 77 349 226 419 425 35 96 44 298 19 398 -30 122 -90 225
-185 321 -73 74 -100 93 -181 132 -52 25 -116 50 -142 56 -65 15 -212 22 -274
12z m206 -452 c203 -92 213 -365 16 -466 -139 -73 -312 -1 -362 151 -54 162
73 336 246 336 34 0 72 -8 100 -21z"/>
</g>
</svg>
