<?xml version="1.0" standalone="no"?>
<!DOCTYPE svg PUBLIC "-//W3C//DTD SVG 20010904//EN"
 "http://www.w3.org/TR/2001/REC-SVG-20010904/DTD/svg10.dtd">
<svg version="1.0" xmlns="http://www.w3.org/2000/svg"
 width="128.000000pt" height="128.000000pt" viewBox="0 0 128.000000 128.000000"
 preserveAspectRatio="xMidYMid meet">
<metadata>
Created by potrace 1.16, written by Peter Selinger 2001-2019
</metadata>
<g transform="translate(0.000000,128.000000) scale(0.100000,-0.100000)"
fill="#000000" stroke="none">
<path d="M0 640 l0 -640 81 0 80 0 -4 570 c-2 314 0 570 5 570 4 0 7 8 6 18
-3 34 2 65 9 58 4 -3 7 -21 7 -39 1 -22 6 -33 19 -35 9 -2 17 2 17 10 0 10 3
9 10 -2 8 -12 10 -10 11 10 1 14 1 29 -1 35 -5 25 12 74 28 78 9 3 3 5 -15 6
-22 1 -33 -4 -36 -16 -4 -17 -5 -17 -6 0 -1 15 -13 17 -106 17 l-105 0 0 -640z"/>
<path d="M938 1273 c7 -3 16 -2 19 1 4 3 -2 6 -13 5 -11 0 -14 -3 -6 -6z"/>
<path d="M255 1174 c0 -19 3 -34 8 -34 4 0 7 13 7 29 0 17 -3 32 -7 34 -5 3
-8 -10 -8 -29z"/>
<path d="M293 1170 c-1 -10 5 -24 13 -31 11 -9 14 -8 14 9 0 27 -25 48 -27 22z"/>
</g>
</svg>
