<?xml version="1.0" standalone="no"?>
<!DOCTYPE svg PUBLIC "-//W3C//DTD SVG 20010904//EN"
 "http://www.w3.org/TR/2001/REC-SVG-20010904/DTD/svg10.dtd">
<svg version="1.0" xmlns="http://www.w3.org/2000/svg"
 width="128.000000pt" height="128.000000pt" viewBox="0 0 128.000000 128.000000"
 preserveAspectRatio="xMidYMid meet">
<metadata>
Created by potrace 1.16, written by Peter Selinger 2001-2019
</metadata>
<g transform="translate(0.000000,128.000000) scale(0.100000,-0.100000)"
fill="#000000" stroke="none">
<path d="M0 1205 l0 -75 596 0 c337 0 593 -4 590 -9 -3 -5 16 -7 42 -5 39 3
42 2 17 -5 -16 -5 -49 -9 -71 -10 -45 -1 -42 5 -35 -78 1 -7 14 -13 30 -13 32
0 50 15 29 23 -19 8 23 8 50 1 14 -4 21 -12 18 -20 -3 -8 -1 -14 4 -14 18 0
11 58 -7 63 -17 4 -17 5 0 6 15 1 17 13 17 106 l0 105 -640 0 -640 0 0 -75z
m1177 -171 c-3 -3 -12 -4 -19 -1 -8 3 -5 6 6 6 11 1 17 -2 13 -5z"/>
<path d="M1137 983 c-13 -12 -7 -23 12 -23 10 0 24 7 31 15 10 13 9 15 -12 15
-14 0 -28 -3 -31 -7z"/>
</g>
</svg>
