<?xml version="1.0" standalone="no"?>
<!DOCTYPE svg PUBLIC "-//W3C//DTD SVG 20010904//EN"
 "http://www.w3.org/TR/2001/REC-SVG-20010904/DTD/svg10.dtd">
<svg version="1.0" xmlns="http://www.w3.org/2000/svg"
 width="256.000000pt" height="256.000000pt" viewBox="0 0 256.000000 256.000000"
 preserveAspectRatio="xMidYMid meet">
<metadata>
Created by potrace 1.16, written by Peter Selinger 2001-2019
</metadata>
<g transform="translate(0.000000,256.000000) scale(0.100000,-0.100000)"
fill="#000000" stroke="none">
<path d="M558 2536 c-81 -33 -145 -83 -188 -145 -74 -107 -70 -48 -70 -1113 0
-1057 -4 -995 65 -1104 44 -68 111 -121 191 -150 l65 -24 663 0 c590 0 668 2
712 17 76 25 148 76 192 135 77 104 73 49 70 928 l-3 785 -44 60 c-25 33 -157
173 -295 310 -186 185 -268 260 -316 288 l-65 37 -460 0 c-459 0 -460 -1 -517
-24z m882 -206 c28 -28 29 -39 32 -282 l3 -218 32 -31 31 -32 227 -5 c211 -4
228 -6 258 -26 l32 -22 0 -690 0 -691 -29 -41 c-16 -24 -46 -50 -71 -62 -41
-20 -54 -20 -682 -18 l-639 3 -41 27 c-26 17 -49 44 -64 75 l-24 48 1 915 c0
1003 -3 952 59 1015 55 54 59 54 473 55 367 0 383 -1 402 -20z"/>
</g>
</svg>
