<?xml version="1.0" standalone="no"?>
<!DOCTYPE svg PUBLIC "-//W3C//DTD SVG 20010904//EN"
 "http://www.w3.org/TR/2001/REC-SVG-20010904/DTD/svg10.dtd">
<svg version="1.0" xmlns="http://www.w3.org/2000/svg"
 width="256.000000pt" height="256.000000pt" viewBox="0 0 256.000000 256.000000"
 preserveAspectRatio="xMidYMid meet">
<metadata>
Created by potrace 1.16, written by Peter Selinger 2001-2019
</metadata>
<g transform="translate(0.000000,256.000000) scale(0.100000,-0.100000)"
fill="#000000" stroke="none">
<path d="M775 2546 c-106 -33 -197 -115 -246 -221 l-30 -63 -6 -391 -6 -391
-168 0 -167 0 -26 -31 -26 -31 0 -334 c0 -211 4 -342 10 -355 22 -41 60 -49
223 -49 l155 0 4 -192 c3 -192 3 -193 35 -260 42 -90 98 -148 186 -192 l72
-37 700 3 700 3 55 28 c77 40 145 110 185 191 l35 69 0 764 0 765 -31 59 c-24
44 -97 124 -311 338 -231 232 -290 285 -340 310 l-61 31 -451 -1 c-334 0 -461
-4 -491 -13z m867 -232 c15 -26 19 -65 25 -259 8 -285 4 -277 145 -287 51 -3
152 -7 224 -7 138 -1 188 -11 204 -41 6 -12 10 -275 10 -702 0 -655 -1 -684
-19 -714 -23 -38 -74 -77 -120 -93 -48 -16 -1218 -16 -1272 0 -45 14 -104 60
-123 97 -9 18 -16 87 -21 200 l-7 172 660 0 660 0 31 35 31 36 0 325 c0 360
-2 372 -61 393 -22 8 -231 11 -677 11 l-644 0 7 368 7 367 26 45 c18 30 42 52
72 68 44 22 47 22 434 20 l390 -3 18 -31z m-1064 -963 c46 -23 67 -46 87 -94
30 -73 8 -170 -50 -215 -31 -25 -114 -52 -157 -52 l-28 0 0 -100 0 -100 -59 0
c-44 0 -60 4 -65 16 -3 9 -6 134 -6 279 0 241 2 265 18 274 9 6 63 11 120 11
82 0 110 -4 140 -19z m437 -131 c41 -82 80 -150 85 -150 6 0 10 57 10 150 l0
150 55 0 55 0 0 -290 0 -291 -62 3 -63 3 -85 170 -85 170 -5 -170 -5 -170 -57
-3 -58 -3 0 291 0 290 70 0 70 0 75 -150z m799 140 c29 -11 32 -32 16 -92 -10
-35 -13 -37 -36 -28 -14 6 -54 10 -88 10 -49 0 -71 -5 -97 -23 -43 -29 -73
-104 -65 -164 13 -94 49 -139 124 -152 66 -12 73 -6 70 52 l-3 52 -37 3 -38 3
0 55 0 54 99 0 c81 0 100 -3 105 -16 3 -9 6 -77 6 -153 l0 -137 -53 -17 c-68
-22 -195 -22 -244 -2 -64 27 -104 65 -134 129 -24 51 -29 74 -29 141 0 131 57
227 165 276 45 21 194 26 239 9z"/>
<path d="M430 1186 l0 -76 38 0 c47 0 82 32 82 76 0 46 -20 65 -73 71 l-47 6
0 -77z"/>
</g>
</svg>
