<?xml version="1.0" standalone="no"?>
<!DOCTYPE svg PUBLIC "-//W3C//DTD SVG 20010904//EN"
 "http://www.w3.org/TR/2001/REC-SVG-20010904/DTD/svg10.dtd">
<svg version="1.0" xmlns="http://www.w3.org/2000/svg"
 width="128.000000pt" height="128.000000pt" viewBox="0 0 128.000000 128.000000"
 preserveAspectRatio="xMidYMid meet">
<metadata>
Created by potrace 1.16, written by Peter Selinger 2001-2019
</metadata>
<g transform="translate(0.000000,128.000000) scale(0.100000,-0.100000)"
fill="#000000" stroke="none">
<path d="M1125 1255 c-17 -16 -25 -35 -25 -58 0 -29 -10 -44 -69 -100 -50 -49
-76 -67 -96 -67 -14 0 -34 -4 -44 -10 -14 -7 -54 3 -157 37 -77 25 -141 50
-142 55 -2 5 -15 22 -29 38 -33 40 -101 43 -138 5 -44 -43 -27 -133 29 -155
17 -6 33 -48 95 -249 40 -133 71 -245 67 -248 -3 -3 -54 0 -113 6 -97 11 -111
15 -136 41 -33 34 -72 42 -114 25 -42 -18 -56 -48 -50 -104 4 -40 -1 -58 -54
-163 -51 -101 -64 -120 -93 -132 -41 -17 -56 -42 -56 -91 0 -103 161 -119 186
-18 4 14 3 38 -3 52 -8 22 0 44 50 147 57 115 62 121 107 142 45 21 51 21 153
9 94 -12 108 -16 126 -39 59 -75 185 -18 167 75 -7 34 -42 77 -63 77 -7 0 -13
2 -13 5 0 2 -32 109 -70 236 -39 128 -69 234 -67 235 8 9 277 -89 277 -100 0
-19 41 -54 73 -61 59 -15 117 36 117 102 0 40 110 149 145 145 55 -7 94 34 95
100 0 39 -4 50 -26 67 -38 30 -98 28 -129 -4z"/>
</g>
</svg>
