<?xml version="1.0" standalone="no"?>
<!DOCTYPE svg PUBLIC "-//W3C//DTD SVG 20010904//EN"
 "http://www.w3.org/TR/2001/REC-SVG-20010904/DTD/svg10.dtd">
<svg version="1.0" xmlns="http://www.w3.org/2000/svg"
 width="256.000000pt" height="256.000000pt" viewBox="0 0 256.000000 256.000000"
 preserveAspectRatio="xMidYMid meet">
<metadata>
Created by potrace 1.16, written by Peter Selinger 2001-2019
</metadata>
<g transform="translate(0.000000,256.000000) scale(0.100000,-0.100000)"
fill="#000000" stroke="none">
<path d="M471 2464 c-255 -51 -466 -96 -470 -99 -3 -3 61 -72 141 -153 l146
-147 -39 -50 c-52 -67 -141 -243 -172 -340 -85 -263 -83 -549 6 -810 60 -176
170 -350 307 -485 387 -383 974 -476 1462 -230 124 63 222 134 323 235 388
388 481 973 235 1465 -123 243 -313 435 -552 556 l-88 44 0 -158 0 -158 63
-41 c192 -126 342 -342 404 -581 36 -139 36 -326 0 -463 -95 -364 -362 -631
-726 -726 -137 -36 -325 -36 -462 0 -364 95 -631 362 -726 726 -36 139 -36
324 1 466 25 96 104 271 146 325 l19 25 150 -149 c100 -100 152 -145 155 -135
3 8 46 221 96 474 50 253 94 470 97 483 4 19 1 22 -23 21 -16 -1 -238 -43
-493 -95z"/>
</g>
</svg>
