<?xml version="1.0" standalone="no"?>
<!DOCTYPE svg PUBLIC "-//W3C//DTD SVG 20010904//EN"
 "http://www.w3.org/TR/2001/REC-SVG-20010904/DTD/svg10.dtd">
<svg version="1.0" xmlns="http://www.w3.org/2000/svg"
 width="256.000000pt" height="256.000000pt" viewBox="0 0 256.000000 256.000000"
 preserveAspectRatio="xMidYMid meet">
<metadata>
Created by potrace 1.16, written by Peter Selinger 2001-2019
</metadata>
<g transform="translate(0.000000,256.000000) scale(0.100000,-0.100000)"
fill="#000000" stroke="none">
<path d="M1692 2416 c-220 -215 -1429 -1423 -1570 -1568 -112 -116 -122 -129
-122 -164 0 -36 14 -51 323 -361 l322 -323 43 0 42 0 786 783 c433 430 845
844 915 919 116 123 129 141 129 173 0 34 -18 55 -307 347 -170 170 -320 316
-335 324 -58 30 -70 23 -226 -130z m423 -306 l240 -240 -833 -833 -832 -832
-242 242 -243 243 52 52 52 52 85 -82 c78 -75 89 -82 126 -82 54 0 80 26 80
82 0 40 -5 48 -82 125 l-83 83 42 42 42 42 85 -82 c73 -70 90 -82 120 -82 49
0 65 8 82 42 24 46 10 76 -79 166 l-82 82 43 42 42 43 97 -96 c191 -186 219
-209 253 -209 44 0 80 39 80 86 0 35 -11 48 -152 191 l-152 153 41 42 42 41
86 -81 c71 -68 92 -82 118 -82 62 0 106 54 86 106 -5 15 -44 62 -85 105 l-76
77 42 41 43 41 83 -80 c91 -87 117 -99 162 -76 34 17 42 33 42 82 0 30 -12 47
-82 120 l-82 85 42 42 42 42 153 -153 c148 -147 154 -152 194 -152 77 0 108
77 56 142 -14 18 -83 90 -152 160 l-126 128 43 42 42 43 82 -81 c46 -45 92
-84 102 -88 26 -9 84 12 96 34 6 10 10 34 10 54 0 30 -11 47 -82 121 l-81 86
84 85 c46 46 86 84 89 84 3 0 113 -108 245 -240z"/>
</g>
</svg>
