<?xml version="1.0" standalone="no"?>
<!DOCTYPE svg PUBLIC "-//W3C//DTD SVG 20010904//EN"
 "http://www.w3.org/TR/2001/REC-SVG-20010904/DTD/svg10.dtd">
<svg version="1.0" xmlns="http://www.w3.org/2000/svg"
 width="256.000000pt" height="256.000000pt" viewBox="0 0 256.000000 256.000000"
 preserveAspectRatio="xMidYMid meet">
<metadata>
Created by potrace 1.16, written by Peter Selinger 2001-2019
</metadata>
<g transform="translate(0.000000,256.000000) scale(0.100000,-0.100000)"
fill="#000000" stroke="none">
<path d="M215 2546 c-92 -29 -149 -78 -187 -161 l-23 -50 0 -1060 c0 -998 1
-1062 18 -1098 27 -58 96 -127 152 -153 l50 -24 1051 0 c1166 0 1101 -4 1183
66 23 20 53 57 69 82 l27 47 3 923 2 924 -27 51 c-37 70 -358 393 -433 436
l-55 31 -895 -1 c-693 0 -904 -3 -935 -13z m1716 -124 l31 -28 6 -360 c4 -322
3 -363 -12 -391 -34 -66 -6 -64 -736 -61 l-660 3 -27 28 -28 27 -3 358 c-2
196 0 366 2 378 3 11 18 33 32 47 l27 27 668 0 669 0 31 -28z m300 -1181 l29
-29 0 -522 0 -522 -29 -29 -29 -29 -922 0 -921 0 -23 23 c-22 22 -23 31 -29
247 -4 123 -4 362 0 530 l6 305 28 27 27 28 917 0 917 0 29 -29z"/>
<path d="M1477 2363 c-4 -3 -7 -161 -7 -350 l0 -343 155 0 155 0 0 350 0 350
-148 0 c-82 0 -152 -3 -155 -7z"/>
</g>
</svg>
