<?xml version="1.0" standalone="no"?>
<!DOCTYPE svg PUBLIC "-//W3C//DTD SVG 20010904//EN"
 "http://www.w3.org/TR/2001/REC-SVG-20010904/DTD/svg10.dtd">
<svg version="1.0" xmlns="http://www.w3.org/2000/svg"
 width="256.000000pt" height="256.000000pt" viewBox="0 0 256.000000 256.000000"
 preserveAspectRatio="xMidYMid meet">
<metadata>
Created by potrace 1.16, written by Peter Selinger 2001-2019
</metadata>
<g transform="translate(0.000000,256.000000) scale(0.100000,-0.100000)"
fill="#000000" stroke="none">
<path d="M1015 2543 c-135 -55 -216 -165 -232 -314 l-6 -59 -194 0 c-263 0
-278 -7 -290 -135 l-6 -65 -43 0 -44 0 0 -105 0 -105 95 0 95 0 0 -762 0 -763
28 -60 c32 -67 92 -127 156 -156 39 -18 77 -19 707 -19 654 0 667 0 714 21 60
27 120 87 151 152 l24 52 0 768 0 767 100 0 100 0 0 105 0 105 -50 0 -50 0 0
54 c0 29 -5 66 -10 82 -19 55 -35 59 -266 62 l-211 3 -5 69 c-9 126 -82 230
-201 290 l-60 30 -231 -1 c-189 0 -238 -3 -271 -16z m482 -219 c32 -23 73 -97
73 -131 l0 -23 -285 0 -285 0 0 30 c0 17 9 48 20 70 36 70 71 80 282 77 150
-2 169 -4 195 -23z m463 -1314 l0 -751 -24 -23 c-34 -35 -107 -38 -728 -34
-642 4 -589 -8 -599 134 -4 49 -7 389 -8 757 l-1 667 680 0 680 0 0 -750z"/>
<path d="M790 985 l0 -595 105 0 105 0 0 595 0 595 -105 0 -105 0 0 -595z"/>
<path d="M1180 985 l0 -595 105 0 105 0 0 595 0 595 -105 0 -105 0 0 -595z"/>
<path d="M1570 985 l0 -595 105 0 105 0 0 595 0 595 -105 0 -105 0 0 -595z"/>
</g>
</svg>
