<?xml version="1.0" standalone="no"?>
<!DOCTYPE svg PUBLIC "-//W3C//DTD SVG 20010904//EN"
 "http://www.w3.org/TR/2001/REC-SVG-20010904/DTD/svg10.dtd">
<svg version="1.0" xmlns="http://www.w3.org/2000/svg"
 width="256.000000pt" height="256.000000pt" viewBox="0 0 256.000000 256.000000"
 preserveAspectRatio="xMidYMid meet">
<metadata>
Created by potrace 1.16, written by Peter Selinger 2001-2019
</metadata>
<g transform="translate(0.000000,256.000000) scale(0.100000,-0.100000)"
fill="#000000" stroke="none">
<path d="M1100 2009 c-315 -35 -620 -177 -852 -397 -104 -99 -202 -218 -229
-277 -40 -88 -9 -190 71 -232 80 -43 160 -26 223 47 20 24 37 37 37 29 0 -26
66 -152 118 -225 133 -188 329 -326 547 -386 69 -19 105 -22 265 -22 159 0
196 3 263 22 279 77 507 266 631 522 22 47 42 86 42 88 1 2 22 -17 47 -42 36
-35 54 -46 92 -52 172 -25 266 149 161 299 -133 193 -343 372 -563 482 -248
124 -561 177 -853 144z m-268 -489 c-24 -59 -27 -77 -27 -190 0 -123 0 -126
37 -202 87 -182 241 -280 443 -279 141 0 244 43 342 141 104 106 154 260 133
410 -10 67 -33 142 -53 168 -19 25 0 20 77 -19 105 -52 198 -115 268 -181 l58
-53 -25 -70 c-129 -358 -494 -600 -863 -570 -343 27 -620 243 -748 581 l-23
63 57 49 c87 75 157 122 257 174 49 25 91 45 92 44 1 -1 -10 -31 -25 -66z"/>
</g>
</svg>
