<?xml version="1.0" standalone="no"?>
<!DOCTYPE svg PUBLIC "-//W3C//DTD SVG 20010904//EN"
 "http://www.w3.org/TR/2001/REC-SVG-20010904/DTD/svg10.dtd">
<svg version="1.0" xmlns="http://www.w3.org/2000/svg"
 width="256.000000pt" height="256.000000pt" viewBox="0 0 256.000000 256.000000"
 preserveAspectRatio="xMidYMid meet">
<metadata>
Created by potrace 1.16, written by Peter Selinger 2001-2019
</metadata>
<g transform="translate(0.000000,256.000000) scale(0.100000,-0.100000)"
fill="#000000" stroke="none">
<path d="M220 2335 l-225 -225 413 -413 412 -412 -410 -410 c-225 -225 -410
-414 -410 -420 0 -13 448 -461 454 -455 3 3 186 186 408 407 222 222 411 403
418 403 8 0 198 -183 422 -407 l408 -408 225 225 c124 124 225 229 225 235 0
6 -185 195 -410 420 l-410 410 412 412 413 413 -225 225 c-124 124 -229 225
-235 225 -5 0 -193 -183 -417 -407 l-407 -407 -409 407 c-225 224 -413 407
-418 407 -5 0 -110 -101 -234 -225z"/>
</g>
</svg>
